<svg width="190" height="160" viewBox="0 0 190 160" fill="none" xmlns="http://www.w3.org/2000/svg">
<path d="M151.147 14.1452C146.636 9.66073 141.28 6.10337 135.385 3.67629C129.491 1.24922 123.172 0 116.791 0C110.41 0 104.092 1.24922 98.1967 3.67629C92.3017 6.10337 86.9458 9.66073 82.4348 14.1452L73.0729 23.4476L63.711 14.1452C54.5992 5.09117 42.2409 0.004693 29.3547 0.00469309C16.4686 0.00469319 4.11029 5.09117 -5.00157 14.1452C-14.1134 23.1992 -19.2324 35.479 -19.2324 48.2833C-19.2324 61.0875 -14.1134 73.3674 -5.00157 82.4214L4.3603 91.7238L73.0729 160L141.786 91.7238L151.147 82.4214C155.66 77.939 159.241 72.6171 161.683 66.7596C164.126 60.902 165.383 54.6237 165.383 48.2833C165.383 41.9428 164.126 35.6645 161.683 29.807C159.241 23.9494 155.66 18.6275 151.147 14.1452Z" fill="url(#paint0_linear_333_4884)"/>
<g filter="url(#filter0_b_333_4884)">
<path d="M50 116.923C48.2464 116.922 46.5241 116.459 45.0058 115.581C43.4876 114.703 42.2268 113.442 41.35 111.923L24.3 81.2741L13.4 97.6238C12.462 98.9765 11.2045 100.077 9.73911 100.827C8.27377 101.577 6.6459 101.954 5 101.924H-40C-42.6522 101.924 -45.1957 100.87 -47.0711 98.9948C-48.9464 97.1195 -50 94.576 -50 91.9239C-50 89.2718 -48.9464 86.7283 -47.0711 84.853C-45.1957 82.9777 -42.6522 81.9241 -40 81.9241H-0.349998L16.7 56.3747C17.6526 54.9511 18.9548 53.7961 20.4819 53.0204C22.009 52.2446 23.7098 51.8741 25.4213 51.9444C27.1327 52.0146 28.7974 52.5233 30.2558 53.4216C31.7142 54.32 32.9173 55.5778 33.75 57.0747L50 86.924L76.15 41.925C77.0435 40.3766 78.3358 39.0961 79.8923 38.2168C81.4488 37.3374 83.2126 36.8914 85 36.9251C86.7451 36.9357 88.4571 37.4027 89.9659 38.2798C91.4746 39.157 92.7274 40.4137 93.6 41.925L117.55 81.9241L127.55 74.0243C129.323 72.6486 131.506 71.9089 133.75 71.9243H180C182.652 71.9243 185.196 72.9779 187.071 74.8532C188.946 76.7285 190 79.272 190 81.9241C190 84.5762 188.946 87.1197 187.071 88.995C185.196 90.8703 182.652 91.9239 180 91.9239H137.25L121 104.774C119.88 105.695 118.574 106.361 117.171 106.727C115.768 107.093 114.302 107.149 112.876 106.893C111.449 106.636 110.095 106.072 108.908 105.24C107.72 104.408 106.728 103.327 106 102.074L85 66.6245L58.65 111.923C57.7732 113.442 56.5124 114.703 54.9942 115.581C53.4759 116.459 51.7536 116.922 50 116.923Z" fill="white" fill-opacity="0.2"/>
</g>
<defs>
<filter id="filter0_b_333_4884" x="-105.556" y="-18.6322" width="351.111" height="191.111" filterUnits="userSpaceOnUse" color-interpolation-filters="sRGB">
<feFlood flood-opacity="0" result="BackgroundImageFix"/>
<feGaussianBlur in="BackgroundImageFix" stdDeviation="27.7778"/>
<feComposite in2="SourceAlpha" operator="in" result="effect1_backgroundBlur_333_4884"/>
<feBlend mode="normal" in="SourceGraphic" in2="effect1_backgroundBlur_333_4884" result="shape"/>
</filter>
<linearGradient id="paint0_linear_333_4884" x1="-19.2324" y1="74.6667" x2="160.957" y2="75.5944" gradientUnits="userSpaceOnUse">
<stop stop-color="#FF7070"/>
<stop offset="1" stop-color="#FF7070" stop-opacity="0.65"/>
</linearGradient>
</defs>
</svg>
