<svg width="51" height="50" viewBox="0 0 51 50" fill="none" xmlns="http://www.w3.org/2000/svg">
<rect x="0.5" width="50" height="50" rx="6" fill="#F3F6F9"/>
<g clip-path="url(#clip0_10_562)">
<path d="M39.0014 47.6743L38.1285 40.6905C37.9967 39.6364 37.2714 38.7516 36.2636 38.4156L32.8975 37.2936C32.4352 37.1394 31.9282 37.2376 31.5717 37.5413L30.5802 37.2108C30.017 37.023 29.6371 36.496 29.6371 35.9023V33.678L32.6078 32.4401C34.1498 31.7978 35.1542 30.2912 35.1542 28.6207V27.931C36.2969 27.931 37.2232 27.0047 37.2232 25.862C37.2232 25.3466 37.0343 24.8756 36.7225 24.5133C37.3079 22.3825 38.9533 15.6421 37.2232 12.7586L37.9128 10C37.9128 10 30.6715 10.1724 26.8784 11.3793L28.2577 10C28.2577 10 18.5594 10 16.5342 13.4477L16.5336 13.4483C16.5336 13.4483 13.0853 13.4196 13.0853 17.5862C13.0853 19.1112 13.9359 22.9191 14.3011 24.484C13.9741 24.8499 13.7749 25.3326 13.7749 25.862C13.7749 27.0047 14.7012 27.931 15.8439 27.931V28.6207C15.8439 30.2911 16.8483 31.7977 18.3903 32.4403L21.3611 33.6781V35.9024C21.3611 36.4961 20.9812 37.0231 20.418 37.2109L19.4265 37.5414C19.07 37.2377 18.563 37.1395 18.1007 37.2936L14.7346 38.4157C13.7268 38.7517 13.0014 39.6365 12.8697 40.6906L11.9968 47.6744C11.8424 48.9092 12.8052 49.9999 14.0497 49.9999H14.0691H36.929H36.9484C38.1929 49.9999 39.1558 48.9092 39.0014 47.6743Z" fill="#FFD7A3"/>
<path d="M29.6369 33.6777L21.361 33.6778V35.902C21.361 36.3985 21.0864 36.8357 20.6699 37.0795C26.4539 38.0919 29.6369 33.6777 29.6369 33.6777Z" fill="#FDC88E"/>
<path d="M14.4652 25.1724C14.4652 25.1724 13.0859 19.5281 13.0859 17.5862C13.0859 13.4196 16.5342 13.4483 16.5342 13.4483L16.5348 13.4477C18.5601 10 28.2583 10 28.2583 10L26.879 11.3793C30.6721 10.1724 37.9135 10 37.9135 10L37.2238 12.7586C39.2928 16.2069 36.5342 25.1724 36.5342 25.1724H14.4652Z" fill="#734A3E"/>
<path d="M28.2583 10C28.2583 10 18.5601 10 16.5348 13.4477L16.5342 13.4483C16.5342 13.4483 13.0859 13.4196 13.0859 17.5862C13.0859 19.5281 14.4652 25.1724 14.4652 25.1724C14.4652 25.1724 28.8044 18.7644 37.9135 10C37.9135 10 30.6721 10.1724 26.879 11.3793L28.2583 10Z" fill="#623F33"/>
<path d="M35.1547 23.7924V22.4131C35.1547 20.5087 33.6108 18.9648 31.7064 18.9648H19.2926C17.3882 18.9648 15.8444 20.5087 15.8444 22.4131V23.7924C14.7017 23.7924 13.7754 24.7187 13.7754 25.8614C13.7754 27.0041 14.7017 27.9303 15.8444 27.9303V28.62C15.8444 30.2904 16.8487 31.7971 18.3907 32.4396L22.8468 34.2964C23.6874 34.6466 24.5889 34.8269 25.4994 34.8269C26.4099 34.8269 27.3114 34.6465 28.1519 34.2964L32.6083 32.4396C34.1503 31.7971 35.1547 30.2905 35.1547 28.62V27.9303C36.2973 27.9303 37.2236 27.0041 37.2236 25.8614C37.2236 24.7187 36.2973 23.7924 35.1547 23.7924Z" fill="#FFE1B2"/>
<path d="M20.6721 26.5514C20.2928 26.5514 19.9824 26.241 19.9824 25.8617V25.1721C19.9824 24.7928 20.2928 24.4824 20.6721 24.4824C21.0514 24.4824 21.3617 24.7928 21.3617 25.1721V25.8617C21.3617 26.241 21.0514 26.5514 20.6721 26.5514Z" fill="#623F33"/>
<path d="M30.3264 26.5514C29.9471 26.5514 29.6367 26.241 29.6367 25.8617V25.1721C29.6367 24.7928 29.9471 24.4824 30.3264 24.4824C30.7057 24.4824 31.016 24.7928 31.016 25.1721V25.8617C31.016 26.241 30.7057 26.5514 30.3264 26.5514Z" fill="#623F33"/>
<path d="M25.4992 31.3985C24.273 31.3985 23.1261 31.0968 22.3526 30.5705C22.0378 30.3564 21.9559 29.9273 22.1705 29.6125C22.3842 29.298 22.8136 29.2161 23.1285 29.4303C23.6706 29.799 24.5569 30.0193 25.4992 30.0193C26.4414 30.0193 27.3277 29.799 27.8698 29.4303C28.1854 29.2155 28.6137 29.2977 28.8279 29.6125C29.0423 29.9273 28.9605 30.3564 28.6457 30.5705C27.8723 31.0968 26.7253 31.3985 25.4992 31.3985Z" fill="#E4B07B"/>
<path d="M39.0014 47.6746L38.1285 40.6909C37.9968 39.6367 37.2714 38.7519 36.2636 38.416L32.8975 37.2939C32.3113 37.0985 31.6518 37.3072 31.3207 37.8289C30.0981 39.7551 27.9494 41.0347 25.4991 41.0347C23.0487 41.0347 20.9 39.755 19.6775 37.8289C19.3464 37.3072 18.6869 37.0985 18.1007 37.2939L14.7346 38.416C13.7268 38.7519 13.0014 39.6367 12.8697 40.6909L11.9968 47.6746C11.8424 48.9095 12.8053 50.0002 14.0498 50.0002H36.9485C38.1929 50.0002 39.1558 48.9095 39.0014 47.6746Z" fill="#00BEA4"/>
<path d="M13.4446 39.3252C13.1384 39.7129 12.9334 40.1812 12.8697 40.691L11.9968 47.6747C11.8424 48.9097 12.8053 50.0003 14.0498 50.0003H17.9129V45.5118C17.9129 44.8483 17.6737 44.2071 17.2393 43.7055L13.4446 39.3252Z" fill="#00AB9A"/>
<path d="M37.5542 39.3242C37.8604 39.7119 38.0654 40.1803 38.1291 40.69L39.002 47.6738C39.1564 48.9087 38.1935 49.9994 36.949 49.9994H33.0859V45.5108C33.0859 44.8473 33.3251 44.2061 33.7595 43.7046L37.5542 39.3242Z" fill="#00AB9A"/>
<path d="M19.4647 31.0099C18.9059 30.4108 18.6031 29.6202 18.6031 28.8009V20.9854C20.7981 20.8208 27.7189 20.2223 31.7065 18.9648H19.2926C19.0552 18.9648 18.8253 18.9925 18.603 19.0408V19.0343C17.0291 19.3539 15.8444 20.7449 15.8444 22.4131V23.7924C14.7017 23.7924 13.7754 24.7187 13.7754 25.8614C13.7754 27.0041 14.7017 27.9303 15.8444 27.9303V28.62C15.8444 30.2905 16.8487 31.7971 18.3907 32.4396L22.8468 34.2964C23.0649 34.3872 23.2874 34.4655 23.5129 34.5333C21.5436 33.0927 20.2327 31.8333 19.4647 31.0099Z" fill="#FFD7A3"/>
</g>
<defs>
<clipPath id="clip0_10_562">
<rect width="40" height="40" fill="white" transform="translate(5.5 10)"/>
</clipPath>
</defs>
</svg>
