<svg width="165" height="40" viewBox="0 0 165 40" fill="none" xmlns="http://www.w3.org/2000/svg">
<rect width="165" height="40" rx="6" fill="#5F8D4E"/>
<path opacity="0.3" fill-rule="evenodd" clip-rule="evenodd" d="M35.8333 19.1659C35.3731 19.1659 35 18.7928 35 18.3326V16.6669H33.3327C32.8724 16.6669 32.4994 16.2938 32.4994 15.8336C32.4994 15.3733 32.8724 15.0002 33.3327 15.0002H35V13.3326C35 12.8724 35.3731 12.4993 35.8333 12.4993C36.2936 12.4993 36.6667 12.8724 36.6667 13.3326V15.0002H38.3327C38.7929 15.0002 39.166 15.3733 39.166 15.8336C39.166 16.2938 38.7929 16.6669 38.3327 16.6669H36.6667V18.3326C36.6667 18.7928 36.2936 19.1659 35.8333 19.1659ZM27.4993 19.1666C25.6584 19.1666 24.166 17.6742 24.166 15.8333C24.166 13.9923 25.6584 12.4999 27.4993 12.4999C29.3403 12.4999 30.8327 13.9923 30.8327 15.8333C30.8327 17.6742 29.3403 19.1666 27.4993 19.1666Z" fill="white"/>
<path d="M20.0005 26.8323C20.3235 22.8551 23.5516 20.833 27.4861 20.833C31.476 20.833 34.7541 22.744 34.9983 26.833C35.008 26.9959 34.9983 27.4997 34.3722 27.4997C31.2843 27.4997 26.6956 27.4997 20.6063 27.4997C20.3973 27.4997 19.9829 27.049 20.0005 26.8323Z" fill="white"/>
<path d="M54.516 24H56.292L53.28 15.612H51.324L48.312 24H50.076L50.628 22.404H53.964L54.516 24ZM53.508 21.06H51.084L52.296 17.556L53.508 21.06ZM56.9858 20.652C56.9858 22.728 58.3298 24.108 60.0218 24.108C61.0658 24.108 61.8098 23.628 62.2058 23.016V24H63.9098V15.12H62.2058V18.276C61.7498 17.652 60.9098 17.244 60.0338 17.244C58.3298 17.244 56.9858 18.576 56.9858 20.652ZM62.2178 20.676C62.2178 21.936 61.3778 22.632 60.4538 22.632C59.5538 22.632 58.7018 21.912 58.7018 20.652C58.7018 19.392 59.5538 18.72 60.4538 18.72C61.3778 18.72 62.2178 19.416 62.2178 20.676ZM65.1187 20.652C65.1187 22.728 66.4627 24.108 68.1547 24.108C69.1987 24.108 69.9427 23.628 70.3387 23.016V24H72.0427V15.12H70.3387V18.276C69.8827 17.652 69.0427 17.244 68.1667 17.244C66.4627 17.244 65.1187 18.576 65.1187 20.652ZM70.3507 20.676C70.3507 21.936 69.5107 22.632 68.5867 22.632C67.6867 22.632 66.8347 21.912 66.8347 20.652C66.8347 19.392 67.6867 18.72 68.5867 18.72C69.5107 18.72 70.3507 19.416 70.3507 20.676ZM81.1988 24H82.8788V20.1C82.8788 18.264 81.7748 17.256 80.2268 17.256C79.3748 17.256 78.6548 17.616 78.2228 18.18V17.352H76.5428V24H78.2228V20.328C78.2228 19.26 78.8108 18.684 79.7228 18.684C80.6108 18.684 81.1988 19.26 81.1988 20.328V24ZM87.3324 18.624C88.1964 18.624 88.8924 19.176 88.9164 20.052H85.7604C85.8924 19.14 86.5284 18.624 87.3324 18.624ZM90.4884 21.912H88.6764C88.4604 22.356 88.0644 22.716 87.3444 22.716C86.5044 22.716 85.8324 22.164 85.7484 21.18H90.6084C90.6444 20.964 90.6564 20.748 90.6564 20.532C90.6564 18.552 89.3004 17.244 87.3804 17.244C85.4124 17.244 84.0444 18.576 84.0444 20.676C84.0444 22.764 85.4484 24.108 87.3804 24.108C89.0244 24.108 90.1284 23.136 90.4884 21.912ZM93.0947 24H94.9187L96.1307 19.356L97.3427 24H99.1547L101.099 17.352H99.4907L98.3147 22.404L97.0667 17.352H95.2907L94.0187 22.416L92.8427 17.352H91.1387L93.0947 24ZM104.435 20.652C104.435 22.728 105.779 24.108 107.471 24.108C108.515 24.108 109.259 23.628 109.655 23.016V24H111.359V15.12H109.655V18.276C109.199 17.652 108.359 17.244 107.483 17.244C105.779 17.244 104.435 18.576 104.435 20.652ZM109.667 20.676C109.667 21.936 108.827 22.632 107.903 22.632C107.003 22.632 106.151 21.912 106.151 20.652C106.151 19.392 107.003 18.72 107.903 18.72C108.827 18.72 109.667 19.416 109.667 20.676ZM119.42 20.676C119.42 18.576 117.92 17.244 116 17.244C114.08 17.244 112.58 18.576 112.58 20.676C112.58 22.764 114.032 24.108 115.952 24.108C117.884 24.108 119.42 22.764 119.42 20.676ZM114.284 20.676C114.284 19.344 115.088 18.708 115.976 18.708C116.864 18.708 117.692 19.344 117.692 20.676C117.692 21.996 116.84 22.644 115.952 22.644C115.052 22.644 114.284 21.996 114.284 20.676ZM120.22 20.676C120.22 22.764 121.588 24.108 123.508 24.108C125.164 24.108 126.28 23.172 126.64 21.756H124.828C124.624 22.356 124.192 22.668 123.496 22.668C122.56 22.668 121.936 21.972 121.936 20.676C121.936 19.38 122.56 18.672 123.496 18.672C124.192 18.672 124.636 19.032 124.828 19.596H126.64C126.28 18.108 125.164 17.244 123.508 17.244C121.588 17.244 120.22 18.588 120.22 20.676ZM128.135 21.936C128.135 23.46 128.987 24 130.259 24H131.315V22.584H130.535C130.007 22.584 129.827 22.392 129.827 21.948V18.732H131.315V17.352H129.827V15.708H128.135V17.352H127.343V18.732H128.135V21.936ZM138.943 20.676C138.943 18.576 137.443 17.244 135.523 17.244C133.603 17.244 132.103 18.576 132.103 20.676C132.103 22.764 133.555 24.108 135.475 24.108C137.407 24.108 138.943 22.764 138.943 20.676ZM133.807 20.676C133.807 19.344 134.611 18.708 135.499 18.708C136.387 18.708 137.215 19.344 137.215 20.676C137.215 21.996 136.363 22.644 135.475 22.644C134.575 22.644 133.807 21.996 133.807 20.676ZM141.856 20.688C141.856 19.404 142.456 19.02 143.452 19.02H143.896V17.256C142.972 17.256 142.276 17.7 141.856 18.384V17.352H140.176V24H141.856V20.688Z" fill="white"/>
</svg>
