<svg width="12" height="14" viewBox="0 0 12 14" fill="none" xmlns="http://www.w3.org/2000/svg">
<path d="M5.33333 8.33301V6.99967H6.66667V8.33301H5.33333ZM2.66667 8.33301V6.99967H4V8.33301H2.66667ZM8 8.33301V6.99967H9.33333V8.33301H8ZM5.33333 10.9997V9.66634H6.66667V10.9997H5.33333ZM2.66667 10.9997V9.66634H4V10.9997H2.66667ZM8 10.9997V9.66634H9.33333V10.9997H8ZM0 13.6663V1.66634H2V0.333008H3.33333V1.66634H8.66667V0.333008H10V1.66634H12V13.6663H0ZM1.33333 12.333H10.6667V5.66634H1.33333V12.333ZM1.33333 4.33301H10.6667V2.99967H1.33333V4.33301ZM1.33333 4.33301V2.99967V4.33301Z" fill="#181C32"/>
</svg>
