<svg width="20" height="17" viewBox="0 0 20 17" fill="none" xmlns="http://www.w3.org/2000/svg">
<path d="M15 9C15 10.7 13.7 12 12 12C10.3 12 9 10.7 9 9C9 7.3 10.3 6 12 6C13.7 6 15 7.3 15 9ZM20 4V15C20 16.1 19.1 17 18 17H2C0.9 17 0 16.1 0 15V4C0 2.9 0.9 2 2 2V1H6V2H8L9 0H15L16 2H18C19.1 2 20 2.9 20 4ZM5.5 6C5.5 5.2 4.8 4.5 4 4.5C3.2 4.5 2.5 5.2 2.5 6C2.5 6.8 3.2 7.5 4 7.5C4.8 7.5 5.5 6.8 5.5 6ZM17 9C17 6.2 14.8 4 12 4C9.2 4 7 6.2 7 9C7 11.8 9.2 14 12 14C14.8 14 17 11.8 17 9Z" fill="white"/>
</svg>
