<svg width="40" height="40" viewBox="0 0 40 40" fill="none" xmlns="http://www.w3.org/2000/svg">
<path d="M34.9577 22.1457V32.8289C34.9577 34.004 33.9962 34.9655 32.8211 34.9655H7.1814C6.00625 34.9655 5.04476 34.004 5.04476 32.8289V22.1457C5.04476 20.9705 4.08327 20.009 2.90812 20.009C1.73297 20.009 0.771484 20.9705 0.771484 22.1457V34.9655C0.771484 37.3158 2.69446 39.2388 5.04476 39.2388H34.9577C37.308 39.2388 39.231 37.3158 39.231 34.9655V22.1457C39.231 20.9705 38.2695 20.009 37.0943 20.009C35.9192 20.009 34.9577 20.9705 34.9577 22.1457ZM22.1379 21.4406L26.1548 17.4237C26.3526 17.2259 26.5874 17.069 26.8459 16.9619C27.1043 16.8549 27.3813 16.7998 27.6611 16.7998C27.9408 16.7998 28.2178 16.8549 28.4763 16.9619C28.7348 17.069 28.9696 17.2259 29.1674 17.4237C29.3652 17.6215 29.5221 17.8564 29.6292 18.1148C29.7363 18.3733 29.7914 18.6503 29.7914 18.93C29.7914 19.2098 29.7363 19.4868 29.6292 19.7453C29.5221 20.0037 29.3652 20.2386 29.1674 20.4364L21.4969 28.1069C21.2992 28.305 21.0644 28.4621 20.8059 28.5693C20.5475 28.6766 20.2704 28.7318 19.9905 28.7318C19.7107 28.7318 19.4336 28.6766 19.1752 28.5693C18.9167 28.4621 18.6819 28.305 18.4842 28.1069L10.8137 20.4364C10.4142 20.0369 10.1897 19.495 10.1897 18.93C10.1897 18.3651 10.4142 17.8232 10.8137 17.4237C11.2132 17.0242 11.755 16.7998 12.32 16.7998C12.885 16.7998 13.4268 17.0242 13.8263 17.4237L17.8646 21.4406V2.91594C17.8646 1.74078 18.8261 0.779297 20.0012 0.779297C21.1764 0.779297 22.1379 1.74078 22.1379 2.91594V21.4406Z" fill="white"/>
</svg>
