<svg width="125" height="20" viewBox="0 0 125 20" fill="none" xmlns="http://www.w3.org/2000/svg">
<path opacity="0.3" fill-rule="evenodd" clip-rule="evenodd" d="M15.8333 9.16593C15.3731 9.16593 15 8.79284 15 8.3326V6.66691H13.3327C12.8724 6.66691 12.4994 6.29382 12.4994 5.83358C12.4994 5.37334 12.8724 5.00024 13.3327 5.00024H15V3.3326C15 2.87236 15.3731 2.49927 15.8333 2.49927C16.2936 2.49927 16.6667 2.87236 16.6667 3.3326V5.00024H18.3327C18.7929 5.00024 19.166 5.37334 19.166 5.83358C19.166 6.29382 18.7929 6.66691 18.3327 6.66691H16.6667V8.3326C16.6667 8.79284 16.2936 9.16593 15.8333 9.16593ZM7.49935 9.16659C5.6584 9.16659 4.16602 7.6742 4.16602 5.83325C4.16602 3.9923 5.6584 2.49992 7.49935 2.49992C9.3403 2.49992 10.8327 3.9923 10.8327 5.83325C10.8327 7.6742 9.3403 9.16659 7.49935 9.16659Z" fill="white"/>
<path d="M0.00054307 16.8323C0.323549 12.8551 3.55159 10.833 7.48612 10.833C11.476 10.833 14.7541 12.744 14.9983 16.833C15.008 16.9959 14.9983 17.4997 14.3722 17.4997C11.2843 17.4997 6.6956 17.4997 0.606252 17.4997C0.39726 17.4997 -0.0170515 17.049 0.00054307 16.8323Z" fill="white"/>
<path d="M34.516 14H36.292L33.28 5.612H31.324L28.312 14H30.076L30.628 12.404H33.964L34.516 14ZM33.508 11.06H31.084L32.296 7.556L33.508 11.06ZM36.9858 10.652C36.9858 12.728 38.3298 14.108 40.0218 14.108C41.0658 14.108 41.8098 13.628 42.2058 13.016V14H43.9098V5.12H42.2058V8.276C41.7498 7.652 40.9098 7.244 40.0338 7.244C38.3298 7.244 36.9858 8.576 36.9858 10.652ZM42.2178 10.676C42.2178 11.936 41.3778 12.632 40.4538 12.632C39.5538 12.632 38.7018 11.912 38.7018 10.652C38.7018 9.392 39.5538 8.72 40.4538 8.72C41.3778 8.72 42.2178 9.416 42.2178 10.676ZM45.1187 10.652C45.1187 12.728 46.4627 14.108 48.1547 14.108C49.1987 14.108 49.9427 13.628 50.3387 13.016V14H52.0427V5.12H50.3387V8.276C49.8827 7.652 49.0427 7.244 48.1667 7.244C46.4627 7.244 45.1187 8.576 45.1187 10.652ZM50.3507 10.676C50.3507 11.936 49.5107 12.632 48.5867 12.632C47.6867 12.632 46.8347 11.912 46.8347 10.652C46.8347 9.392 47.6867 8.72 48.5867 8.72C49.5107 8.72 50.3507 9.416 50.3507 10.676ZM61.1988 14H62.8788V10.1C62.8788 8.264 61.7748 7.256 60.2268 7.256C59.3748 7.256 58.6548 7.616 58.2228 8.18V7.352H56.5428V14H58.2228V10.328C58.2228 9.26 58.8108 8.684 59.7228 8.684C60.6108 8.684 61.1988 9.26 61.1988 10.328V14ZM67.3324 8.624C68.1964 8.624 68.8924 9.176 68.9164 10.052H65.7604C65.8924 9.14 66.5284 8.624 67.3324 8.624ZM70.4884 11.912H68.6764C68.4604 12.356 68.0644 12.716 67.3444 12.716C66.5044 12.716 65.8324 12.164 65.7484 11.18H70.6084C70.6444 10.964 70.6564 10.748 70.6564 10.532C70.6564 8.552 69.3004 7.244 67.3804 7.244C65.4124 7.244 64.0444 8.576 64.0444 10.676C64.0444 12.764 65.4484 14.108 67.3804 14.108C69.0244 14.108 70.1284 13.136 70.4884 11.912ZM73.0947 14H74.9187L76.1307 9.356L77.3427 14H79.1547L81.0987 7.352H79.4907L78.3147 12.404L77.0667 7.352H75.2907L74.0187 12.416L72.8427 7.352H71.1387L73.0947 14ZM84.4351 10.652C84.4351 12.728 85.7791 14.108 87.4711 14.108C88.5151 14.108 89.2591 13.628 89.6551 13.016V14H91.3591V5.12H89.6551V8.276C89.1991 7.652 88.3591 7.244 87.4831 7.244C85.7791 7.244 84.4351 8.576 84.4351 10.652ZM89.6671 10.676C89.6671 11.936 88.8271 12.632 87.9031 12.632C87.0031 12.632 86.1511 11.912 86.1511 10.652C86.1511 9.392 87.0031 8.72 87.9031 8.72C88.8271 8.72 89.6671 9.416 89.6671 10.676ZM99.4199 10.676C99.4199 8.576 97.9199 7.244 95.9999 7.244C94.0799 7.244 92.5799 8.576 92.5799 10.676C92.5799 12.764 94.0319 14.108 95.9519 14.108C97.8839 14.108 99.4199 12.764 99.4199 10.676ZM94.2839 10.676C94.2839 9.344 95.0879 8.708 95.9759 8.708C96.8639 8.708 97.6919 9.344 97.6919 10.676C97.6919 11.996 96.8399 12.644 95.9519 12.644C95.0519 12.644 94.2839 11.996 94.2839 10.676ZM100.22 10.676C100.22 12.764 101.588 14.108 103.508 14.108C105.164 14.108 106.28 13.172 106.64 11.756H104.828C104.624 12.356 104.192 12.668 103.496 12.668C102.56 12.668 101.936 11.972 101.936 10.676C101.936 9.38 102.56 8.672 103.496 8.672C104.192 8.672 104.636 9.032 104.828 9.596H106.64C106.28 8.108 105.164 7.244 103.508 7.244C101.588 7.244 100.22 8.588 100.22 10.676ZM108.135 11.936C108.135 13.46 108.987 14 110.259 14H111.315V12.584H110.535C110.007 12.584 109.827 12.392 109.827 11.948V8.732H111.315V7.352H109.827V5.708H108.135V7.352H107.343V8.732H108.135V11.936ZM118.943 10.676C118.943 8.576 117.443 7.244 115.523 7.244C113.603 7.244 112.103 8.576 112.103 10.676C112.103 12.764 113.555 14.108 115.475 14.108C117.407 14.108 118.943 12.764 118.943 10.676ZM113.807 10.676C113.807 9.344 114.611 8.708 115.499 8.708C116.387 8.708 117.215 9.344 117.215 10.676C117.215 11.996 116.363 12.644 115.475 12.644C114.575 12.644 113.807 11.996 113.807 10.676ZM121.856 10.688C121.856 9.404 122.456 9.02 123.452 9.02H123.896V7.256C122.972 7.256 122.276 7.7 121.856 8.384V7.352H120.176V14H121.856V10.688Z" fill="white"/>
</svg>
