<svg width="53" height="53" viewBox="0 0 53 53" fill="none" xmlns="http://www.w3.org/2000/svg">
<path id="Vector" fill-rule="evenodd" clip-rule="evenodd" d="M15.1658 12.4779C15.1658 9.41515 16.3825 6.47781 18.5482 4.31209C20.7139 2.14637 23.6513 0.929688 26.714 0.929688C29.7768 0.929688 32.7142 2.14637 34.8799 4.31209C37.0456 6.47781 38.2623 9.41515 38.2623 12.4779C38.2623 15.5407 37.0456 18.4781 34.8799 20.6438C32.7142 22.8095 29.7768 24.0262 26.714 24.0262C23.6513 24.0262 20.7139 22.8095 18.5482 20.6438C16.3825 18.4781 15.1658 15.5407 15.1658 12.4779ZM15.1658 29.8003C11.3373 29.8003 7.66562 31.3212 4.95848 34.0283C2.25133 36.7355 0.730469 40.4072 0.730469 44.2356C0.730469 46.5327 1.64298 48.7357 3.26727 50.36C4.89156 51.9843 7.09457 52.8968 9.39166 52.8968H44.0364C46.3335 52.8968 48.5365 51.9843 50.1608 50.36C51.7851 48.7357 52.6976 46.5327 52.6976 44.2356C52.6976 40.4072 51.1768 36.7355 48.4696 34.0283C45.7625 31.3212 42.0908 29.8003 38.2623 29.8003H15.1658Z" fill="white"/>
</svg>
