<svg width="53" height="53" viewBox="0 0 53 53" fill="none" xmlns="http://www.w3.org/2000/svg">
<path id="Vector" d="M47.7138 0.779297H6.14007C3.28188 0.779297 0.943359 3.11782 0.943359 5.97601V52.7464L11.3368 42.353H47.7138C50.572 42.353 52.9105 40.0145 52.9105 37.1563V5.97601C52.9105 3.11782 50.572 0.779297 47.7138 0.779297ZM11.3368 31.9596V25.5416L29.2135 7.66494C29.7332 7.14527 30.5386 7.14527 31.0583 7.66494L35.6574 12.264C36.1771 12.7837 36.1771 13.5892 35.6574 14.1089L17.7547 31.9596H11.3368ZM39.9187 31.9596H23.0294L28.2261 26.7629H39.9187C41.3478 26.7629 42.5171 27.9321 42.5171 29.3612C42.5171 30.7903 41.3478 31.9596 39.9187 31.9596Z" fill="white"/>
</svg>
