<svg width="20" height="20" viewBox="0 0 20 20" fill="none" xmlns="http://www.w3.org/2000/svg">
<path opacity="0.3" fill-rule="evenodd" clip-rule="evenodd" d="M15.8333 9.16593C15.3731 9.16593 15 8.79284 15 8.3326V6.66691H13.3327C12.8724 6.66691 12.4994 6.29382 12.4994 5.83358C12.4994 5.37334 12.8724 5.00024 13.3327 5.00024H15V3.3326C15 2.87236 15.3731 2.49927 15.8333 2.49927C16.2936 2.49927 16.6667 2.87236 16.6667 3.3326V5.00024H18.3327C18.7929 5.00024 19.166 5.37334 19.166 5.83358C19.166 6.29382 18.7929 6.66691 18.3327 6.66691H16.6667V8.3326C16.6667 8.79284 16.2936 9.16593 15.8333 9.16593ZM7.49935 9.16659C5.6584 9.16659 4.16602 7.6742 4.16602 5.83325C4.16602 3.9923 5.6584 2.49992 7.49935 2.49992C9.3403 2.49992 10.8327 3.9923 10.8327 5.83325C10.8327 7.6742 9.3403 9.16659 7.49935 9.16659Z" fill="white"/>
<path d="M0.00054307 16.8323C0.323549 12.8551 3.55159 10.833 7.48612 10.833C11.476 10.833 14.7541 12.744 14.9983 16.833C15.008 16.9959 14.9983 17.4997 14.3722 17.4997C11.2843 17.4997 6.6956 17.4997 0.606252 17.4997C0.39726 17.4997 -0.0170515 17.049 0.00054307 16.8323Z" fill="white"/>
</svg>
