<svg width="195" height="66" viewBox="0 0 195 66" fill="none" xmlns="http://www.w3.org/2000/svg">
<path d="M38.18 18.892V51H31.74V30.116L23.138 51H18.262L9.614 30.116V51H3.174V18.892H10.488L20.7 42.766L30.912 18.892H38.18ZM68.237 37.706C68.237 38.626 68.1757 39.454 68.053 40.19H49.423C49.5764 42.03 50.2204 43.4713 51.355 44.514C52.4897 45.5567 53.885 46.078 55.541 46.078C57.933 46.078 59.635 45.0507 60.647 42.996H67.593C66.857 45.4493 65.4464 47.4733 63.361 49.068C61.2757 50.632 58.715 51.414 55.679 51.414C53.2257 51.414 51.0177 50.8773 49.055 49.804C47.123 48.7 45.605 47.1513 44.501 45.158C43.4277 43.1647 42.891 40.8647 42.891 38.258C42.891 35.6207 43.4277 33.3053 44.501 31.312C45.5744 29.3187 47.077 27.7853 49.009 26.712C50.941 25.6387 53.1644 25.102 55.679 25.102C58.1017 25.102 60.2637 25.6233 62.165 26.666C64.097 27.7087 65.5844 29.196 66.627 31.128C67.7004 33.0293 68.237 35.222 68.237 37.706ZM61.567 35.866C61.5364 34.21 60.9384 32.8913 59.773 31.91C58.6077 30.898 57.1817 30.392 55.495 30.392C53.9004 30.392 52.551 30.8827 51.447 31.864C50.3737 32.8147 49.7144 34.1487 49.469 35.866H61.567ZM71.2817 38.166C71.2817 35.59 71.7877 33.3053 72.7997 31.312C73.8423 29.3187 75.253 27.7853 77.0317 26.712C78.8103 25.6387 80.7883 25.102 82.9657 25.102C84.6217 25.102 86.201 25.47 87.7037 26.206C89.2063 26.9113 90.4023 27.862 91.2917 29.058V16.96H97.8237V51H91.2917V47.228C90.4943 48.4853 89.375 49.4973 87.9337 50.264C86.4923 51.0307 84.821 51.414 82.9197 51.414C80.773 51.414 78.8103 50.862 77.0317 49.758C75.253 48.654 73.8423 47.1053 72.7997 45.112C71.7877 43.088 71.2817 40.7727 71.2817 38.166ZM91.3377 38.258C91.3377 36.694 91.031 35.36 90.4177 34.256C89.8043 33.1213 88.9763 32.2627 87.9337 31.68C86.891 31.0667 85.7717 30.76 84.5757 30.76C83.3797 30.76 82.2757 31.0513 81.2637 31.634C80.2517 32.2167 79.4237 33.0753 78.7797 34.21C78.1663 35.314 77.8597 36.6327 77.8597 38.166C77.8597 39.6993 78.1663 41.0487 78.7797 42.214C79.4237 43.3487 80.2517 44.2227 81.2637 44.836C82.3063 45.4493 83.4103 45.756 84.5757 45.756C85.7717 45.756 86.891 45.4647 87.9337 44.882C88.9763 44.2687 89.8043 43.41 90.4177 42.306C91.031 41.1713 91.3377 39.822 91.3377 38.258ZM110.553 16.96V51H104.113V16.96H110.553ZM120.182 22.48C119.048 22.48 118.097 22.1273 117.33 21.422C116.594 20.686 116.226 19.7813 116.226 18.708C116.226 17.6347 116.594 16.7453 117.33 16.04C118.097 15.304 119.048 14.936 120.182 14.936C121.317 14.936 122.252 15.304 122.988 16.04C123.755 16.7453 124.138 17.6347 124.138 18.708C124.138 19.7813 123.755 20.686 122.988 21.422C122.252 22.1273 121.317 22.48 120.182 22.48ZM123.356 25.516V51H116.916V25.516H123.356ZM143.841 25.148C146.877 25.148 149.33 26.114 151.201 28.046C153.072 29.9473 154.007 32.6153 154.007 36.05V51H147.567V36.924C147.567 34.9 147.061 33.3513 146.049 32.278C145.037 31.174 143.657 30.622 141.909 30.622C140.13 30.622 138.72 31.174 137.677 32.278C136.665 33.3513 136.159 34.9 136.159 36.924V51H129.719V25.516H136.159V28.69C137.018 27.586 138.106 26.7273 139.425 26.114C140.774 25.47 142.246 25.148 143.841 25.148ZM175.219 51L166.571 40.144V51H160.131V16.96H166.571V36.326L175.127 25.516H183.499L172.275 38.304L183.591 51H175.219Z" fill="white"/>
<line x1="2" y1="10.5" x2="61" y2="10.5" stroke="white" stroke-width="9"/>
<line x1="126" y1="61.5" x2="185" y2="61.5" stroke="#FE3737" stroke-width="9"/>
</svg>
