<svg width="131" height="30" viewBox="0 0 131 30" fill="none" xmlns="http://www.w3.org/2000/svg">
<rect x="4.83398" y="5.33301" width="8.45833" height="8.45833" rx="1.5" fill="white"/>
<path opacity="0.3" fill-rule="evenodd" clip-rule="evenodd" d="M15.709 6.83301C15.709 6.00458 16.3806 5.33301 17.209 5.33301H22.6673C23.4957 5.33301 24.1673 6.00458 24.1673 6.83301V12.2913C24.1673 13.1198 23.4957 13.7913 22.6673 13.7913H17.209C16.3806 13.7913 15.709 13.1198 15.709 12.2913V6.83301ZM4.83398 17.708C4.83398 16.8796 5.50556 16.208 6.33398 16.208H11.7923C12.6207 16.208 13.2923 16.8796 13.2923 17.708V23.1663C13.2923 23.9948 12.6207 24.6663 11.7923 24.6663H6.33399C5.50556 24.6663 4.83398 23.9948 4.83398 23.1663V17.708ZM17.209 16.208C16.3806 16.208 15.709 16.8796 15.709 17.708V23.1663C15.709 23.9948 16.3806 24.6663 17.209 24.6663H22.6673C23.4957 24.6663 24.1673 23.9948 24.1673 23.1663V17.708C24.1673 16.8796 23.4957 16.208 22.6673 16.208H17.209Z" fill="white"/>
<rect opacity="0.3" x="68.709" y="5.96118" width="3.625" height="18.0779" rx="1.8125" fill="white"/>
<rect x="62.666" y="11.6106" width="3.625" height="12.4286" rx="1.8125" fill="white"/>
<rect x="74.75" y="13.8701" width="3.625" height="10.1688" rx="1.8125" fill="white"/>
<rect x="56.625" y="16.1299" width="3.625" height="7.90909" rx="1.8125" fill="white"/>
<path fill-rule="evenodd" clip-rule="evenodd" d="M129.145 20.8074C129.467 21.0977 129.981 20.8676 129.979 20.4338L129.962 16.0362V8.93092C129.962 7.62288 128.784 6.5625 127.33 6.5625H115.05C113.596 6.5625 112.418 7.62288 112.418 8.93092V12.1875H119.666C121.323 12.1875 122.666 13.5306 122.666 15.1875V18.4046H126.475L129.145 20.8074Z" fill="white"/>
<path opacity="0.3" fill-rule="evenodd" clip-rule="evenodd" d="M108.068 20.625V15.9375C108.068 14.902 109.001 14.0625 110.152 14.0625H118.485C119.636 14.0625 120.568 14.902 120.568 15.9375V20.625C120.568 21.6605 119.636 22.5 118.485 22.5H110.272L108.922 23.6632C108.598 23.9424 108.096 23.7121 108.096 23.2844V20.929C108.078 20.83 108.068 20.7285 108.068 20.625ZM112.25 17.3438C112.25 17.0849 112.46 16.875 112.719 16.875H118.031C118.29 16.875 118.5 17.0849 118.5 17.3438C118.5 17.6026 118.29 17.8125 118.031 17.8125H112.719C112.46 17.8125 112.25 17.6026 112.25 17.3438ZM115.844 18.75C115.585 18.75 115.375 18.9599 115.375 19.2187C115.375 19.4776 115.585 19.6875 115.844 19.6875H118.031C118.29 19.6875 118.5 19.4776 118.5 19.2187C118.5 18.9599 118.29 18.75 118.031 18.75H115.844Z" fill="white"/>
</svg>
